<svg width="40" height="40" viewBox="0 0 40 40" fill="none" xmlns="http://www.w3.org/2000/svg">
<path d="M31.4375 12.8L21.8125 7.235C21.0075 6.7625 19.9925 6.7625 19.1875 7.235L9.5625 12.8C8.7575 13.2725 8.25 14.13 8.25 15.075V26.1875C8.25 27.1325 8.7575 27.99 9.5625 28.4625L19.1875 34.0275C19.9925 34.5 21.0075 34.5 21.8125 34.0275L31.4375 28.4625C32.2425 27.99 32.75 27.1325 32.75 26.1875V15.075C32.75 14.13 32.2425 13.2725 31.4375 12.8ZM11.75 25.68V17.595L18.75 21.655V29.7225L11.75 25.68ZM20.5 18.6275L13.5 14.5675L20.5 10.525L27.5 14.5675L20.5 18.6275ZM22.25 29.7225V21.655L29.25 17.595V25.68L22.25 29.7225ZM11.75 3H5.625C4.1725 3 3 4.1725 3 5.625V11.75H6.5V6.5H11.75V3ZM29.25 3H35.375C36.8275 3 38 4.1725 38 5.625V11.75H34.5V6.5H29.25V3ZM11.75 38H5.625C4.1725 38 3 36.8275 3 35.375V29.25H6.5V34.5H11.75V38ZM29.25 38H35.375C36.8275 38 38 36.8275 38 35.375V29.25H34.5V34.5H29.25V38Z" fill="#394655"/>
</svg>
