<svg width="40" height="40" viewBox="0 0 40 40" fill="none" xmlns="http://www.w3.org/2000/svg">
<g clip-path="url(#clip0_70_301)">
<path d="M39.9994 27.2173C39.9993 27.2023 39.9988 27.1873 39.9978 27.1723C39.9968 27.1591 39.9951 27.1461 39.9934 27.1329C39.9918 27.1194 39.9903 27.106 39.988 27.0926C39.9855 27.0788 39.9826 27.0651 39.9794 27.0514C39.9765 27.0391 39.9739 27.0267 39.9706 27.0145C39.9668 27.0006 39.9623 26.9871 39.9579 26.9736C39.9539 26.9616 39.9502 26.9498 39.9457 26.9381C39.9407 26.9251 39.9351 26.9124 39.9295 26.8996C39.9243 26.8877 39.9193 26.8759 39.9135 26.8643C39.9077 26.8525 39.9012 26.8411 39.8949 26.8296C39.8881 26.8175 39.8815 26.8054 39.8742 26.7937C39.8677 26.7832 39.8607 26.7731 39.8537 26.7629C39.8454 26.7509 39.8373 26.739 39.8284 26.7274C39.8212 26.718 39.8134 26.7089 39.8059 26.6998C39.7964 26.6882 39.7866 26.677 39.7765 26.666C39.7684 26.6572 39.7599 26.649 39.7513 26.6406C39.7408 26.6302 39.7303 26.6199 39.7192 26.61C39.7096 26.6015 39.6995 26.5935 39.6895 26.5855C39.6788 26.5768 39.668 26.568 39.6568 26.5598C39.6452 26.5514 39.6331 26.5436 39.621 26.5358C39.6104 26.5289 39.5999 26.5218 39.5889 26.5154C39.5754 26.5074 39.5612 26.5002 39.547 26.4929C39.5367 26.4876 39.5265 26.4821 39.5159 26.4771C39.5009 26.4703 39.4855 26.4643 39.47 26.4583C39.4615 26.455 39.4534 26.451 39.4448 26.4479L36.6446 25.4571C36.2107 25.3037 35.7345 25.5309 35.5809 25.9648C35.4274 26.3986 35.6547 26.8748 36.0886 27.0284L37.2946 27.4551L34.7573 28.4285V14.9562C34.7573 14.9368 34.7558 14.9179 34.7545 14.8989C34.7693 14.7175 34.7242 14.5362 34.6262 14.3827C34.5282 14.2293 34.3827 14.1122 34.2118 14.0493L21.5946 9.40537V5.33701L22.2799 6.02293C22.3572 6.1005 22.4491 6.16203 22.5503 6.20396C22.6514 6.24589 22.7599 6.26741 22.8694 6.26726C22.9788 6.26741 23.0872 6.24594 23.1882 6.2041C23.2893 6.16225 23.3811 6.10085 23.4584 6.02343C23.7839 5.69818 23.7842 5.17051 23.4589 4.84492L21.4654 2.84966C21.4537 2.83649 21.4425 2.82307 21.4299 2.81041C21.3524 2.73276 21.2603 2.67124 21.1589 2.62941C21.0575 2.58757 20.9488 2.56624 20.8391 2.56666C20.7294 2.56627 20.6207 2.58761 20.5192 2.62944C20.4178 2.67128 20.3257 2.73278 20.2481 2.81041C20.2353 2.82324 20.2238 2.83699 20.2119 2.85041L18.2196 4.84492C17.8944 5.17051 17.8946 5.69818 18.2202 6.02343C18.2975 6.10085 18.3893 6.16225 18.4904 6.20409C18.5914 6.24594 18.6998 6.26741 18.8091 6.26726C18.9187 6.2674 19.0271 6.24588 19.1283 6.20395C19.2295 6.16202 19.3213 6.1005 19.3986 6.02293L19.9281 5.49301V9.47253L7.92666 14.0527C7.92241 14.0544 7.91841 14.0564 7.91424 14.0581C7.90382 14.0622 7.89357 14.0667 7.88332 14.0712C7.87033 14.0771 7.85749 14.0833 7.84482 14.0898C7.83607 14.0943 7.82716 14.0986 7.81866 14.1035C7.79967 14.114 7.7811 14.1253 7.76299 14.1372L7.75582 14.1419C7.73632 14.1551 7.71757 14.1694 7.69932 14.1841C7.69382 14.1886 7.68849 14.1934 7.68316 14.1981C7.66971 14.2095 7.65665 14.2214 7.64399 14.2336C7.63841 14.2391 7.63282 14.2444 7.62749 14.25C7.61459 14.2632 7.60217 14.2769 7.59024 14.2911C7.58624 14.2956 7.58207 14.3001 7.57824 14.3047C7.56332 14.3231 7.54916 14.342 7.53582 14.3615C7.53149 14.3677 7.52774 14.3742 7.52365 14.3806C7.51482 14.3943 7.50624 14.4082 7.49816 14.4226C7.49316 14.4312 7.48857 14.4401 7.48399 14.4489C7.47724 14.4619 7.47088 14.4752 7.46491 14.4886C7.46082 14.4976 7.45657 14.5065 7.45282 14.5156C7.44415 14.5367 7.43624 14.5581 7.42924 14.58C7.42716 14.587 7.42549 14.5941 7.42349 14.6011C7.41106 14.6433 7.40231 14.6865 7.39732 14.7301C7.39632 14.7383 7.39524 14.7463 7.39449 14.7545C7.39224 14.7793 7.39065 14.8043 7.39057 14.8296V29.0964L3.16329 27.7411L4.61614 27.1386C5.04131 26.9623 5.24289 26.4748 5.06664 26.0496C4.89022 25.6245 4.40289 25.4229 3.97763 25.5991L0.667696 26.9717C0.592809 27.0028 0.522873 27.0447 0.460111 27.0961C0.0725256 27.2902 -0.104976 27.7532 0.0638589 28.1598L1.43962 31.4716C1.50282 31.6237 1.60968 31.7537 1.74671 31.8452C1.88374 31.9366 2.0448 31.9854 2.20954 31.9854C2.31916 31.9854 2.42769 31.9636 2.52887 31.9214C2.95396 31.7448 3.15538 31.2572 2.97879 30.8322L2.30787 29.2172L8.06983 31.0644C8.12061 31.0805 8.17282 31.0917 8.22574 31.0979L18.1785 34.2862C18.145 34.4547 18.1281 34.6262 18.1281 34.798C18.1281 36.251 19.3102 37.4332 20.7632 37.4332C22.2139 37.4332 23.3941 36.2511 23.3941 34.798C23.3941 34.7394 23.3915 34.6814 23.3878 34.6238L31.4566 31.4793C31.4615 31.4775 31.4664 31.4763 31.4712 31.4744L37.9278 28.9974L37.7689 29.7233C37.6705 30.1729 37.9552 30.6172 38.4048 30.7156C38.4648 30.7287 38.5248 30.735 38.5838 30.735C38.9669 30.735 39.3117 30.4692 39.397 30.0797L39.981 27.4117C39.9829 27.4034 39.9836 27.3951 39.9852 27.3868C39.9884 27.3696 39.9916 27.3524 39.9939 27.3352C39.9951 27.3246 39.9957 27.3139 39.9966 27.3031C39.9981 27.2865 39.9994 27.2698 39.9999 27.2531C40.0002 27.2411 39.9997 27.2292 39.9994 27.2173ZM19.9281 32.3016C19.6006 32.4114 19.2978 32.5846 19.0371 32.8112L9.057 29.6141V16.0469L19.9281 20.2496V32.3016ZM19.9281 18.4627L10.5478 14.8363L19.9281 11.2564V18.4627ZM21.5948 11.1814L31.5253 14.8364L21.5948 18.5388V11.1814ZM33.0909 29.0536L22.7555 33.0813C22.4459 32.7215 22.0449 32.4518 21.5948 32.3008V20.3175L33.0909 16.0314V29.0536Z" fill="#C9CCD1"/>
</g>
<defs>
<clipPath id="clip0_70_301">
<rect width="40" height="40" fill="white"/>
</clipPath>
</defs>
</svg>
