<svg width="30" height="30" viewBox="0 0 30 30" fill="none" xmlns="http://www.w3.org/2000/svg">
<g clip-path="url(#clip0_86_386)">
<path d="M29.6484 6.21094V23.7891C29.6484 27.0234 27.0234 29.6484 23.7891 29.6484H6.21094C2.97656 29.6484 0.351562 27.0234 0.351562 23.7891V6.21094C0.351562 2.97656 2.97656 0.351562 6.21094 0.351562H23.7891C27.0234 0.351562 29.6484 2.97656 29.6484 6.21094ZM9.49805 19.4297C10.5469 20.4844 11.8828 21.082 13.248 21.2285C13.6055 21.2695 13.916 20.9824 13.916 20.625V20.2207C13.916 19.916 13.6875 19.6523 13.3828 19.6172C12.3809 19.5059 11.4082 19.0547 10.6348 18.2871C8.82422 16.4766 8.82422 13.541 10.6348 11.7305C12.4453 9.91992 15.3809 9.91992 17.1914 11.7305C18.0645 12.6035 18.5098 13.7285 18.5449 14.8652H16.7402C16.3828 14.8652 16.2012 15.2988 16.4531 15.5508L19.043 18.1406C19.2012 18.2988 19.4531 18.2988 19.6113 18.1406L22.207 15.5566C22.459 15.3047 22.2832 14.8711 21.9199 14.8711H20.1621C20.127 13.3184 19.5176 11.7773 18.334 10.5938C15.8965 8.15625 11.9473 8.15625 9.50977 10.5879C7.07227 13.0195 7.06641 16.9922 9.49805 19.4297Z" fill="#877751"/>
</g>
<defs>
<clipPath id="clip0_86_386">
<rect width="30" height="30" fill="white" transform="matrix(-1 0 0 1 30 0)"/>
</clipPath>
</defs>
</svg>
