<svg width="40" height="40" viewBox="0 0 40 40" fill="none" xmlns="http://www.w3.org/2000/svg">
<g clip-path="url(#clip0_86_375)">
<path d="M28.3333 5H8.33333C6.48333 5 5 6.5 5 8.33333V31.6667C5 33.5 6.48333 35 8.33333 35H31.6667C33.5 35 35 33.5 35 31.6667V11.6667L28.3333 5ZM20 31.6667C17.2333 31.6667 15 29.4333 15 26.6667C15 23.9 17.2333 21.6667 20 21.6667C22.7667 21.6667 25 23.9 25 26.6667C25 29.4333 22.7667 31.6667 20 31.6667ZM25 15H8.33333V8.33333H25V15Z" fill="#877751"/>
</g>
<defs>
<clipPath id="clip0_86_375">
<rect width="40" height="40" fill="white"/>
</clipPath>
</defs>
</svg>
