<svg width="40" height="40" viewBox="0 0 40 40" fill="none" xmlns="http://www.w3.org/2000/svg">
<g clip-path="url(#clip0_86_372)">
<path fill-rule="evenodd" clip-rule="evenodd" d="M8.33333 5H28.3333L35 11.6667V31.6667C35 33.5 33.5 35 31.6667 35H8.33333C6.48333 35 5 33.5 5 31.6667V8.33333C5 6.5 6.48333 5 8.33333 5ZM8.33333 15H25V8.33333H8.33333V15ZM22.9539 19.4117L27.9584 24.4127C28.0929 24.5469 28.1996 24.7064 28.2724 24.8819C28.3452 25.0574 28.3826 25.2455 28.3826 25.4355C28.3826 25.6255 28.3452 25.8136 28.2724 25.9891C28.1996 26.1646 28.0929 26.324 27.9584 26.4582L22.9516 31.4627C22.6878 31.7264 22.33 31.8746 21.957 31.8745C21.584 31.8745 21.2263 31.7262 20.9626 31.4624C20.6989 31.1986 20.5508 30.8409 20.5508 30.4679C20.5509 30.0949 20.6991 29.7372 20.9629 29.4735L23.5938 26.8426H11.4062C11.0333 26.8426 10.6756 26.6945 10.4119 26.4307C10.1482 26.167 10 25.8093 10 25.4364C10 25.0634 10.1482 24.7057 10.4119 24.442C10.6756 24.1783 11.0333 24.0301 11.4062 24.0301H23.5938L20.9881 21.4227C20.4303 20.8649 20.4168 19.9391 20.9852 19.3924C21.2505 19.1373 21.6054 18.9965 21.9735 19.0001C22.3416 19.0037 22.6936 19.1515 22.9539 19.4117Z" fill="#877751"/>
</g>
<defs>
<clipPath id="clip0_86_372">
<rect width="40" height="40" fill="white"/>
</clipPath>
</defs>
</svg>
