<svg width="40" height="40" viewBox="0 0 40 40" fill="none" xmlns="http://www.w3.org/2000/svg">
<path d="M16.718 7.77542C16.5294 7.72374 16.3289 7.73653 16.1484 7.81175C15.9679 7.88698 15.8176 8.02034 15.7215 8.19068L2.12013 31.9195C2.04145 32.0546 2 32.2081 2 32.3644C2 32.5207 2.04145 32.6742 2.12013 32.8093C2.19873 32.9443 2.31124 33.0563 2.44651 33.1344C2.58177 33.2124 2.73509 33.2537 2.89125 33.2542H16.4926C16.7286 33.2542 16.9549 33.1605 17.1218 32.9936C17.2886 32.8267 17.3824 32.6004 17.3824 32.3644V8.63559C17.3812 8.43921 17.3156 8.24865 17.1956 8.09323C17.0755 7.9378 16.9077 7.82614 16.718 7.77542ZM15.6029 31.5042H4.42756L15.6029 11.9754V31.5042ZM36.8799 31.9195L23.2785 8.19068C23.1807 8.02076 23.0295 7.8879 22.8484 7.81274C22.6674 7.73759 22.4665 7.72434 22.2772 7.77507C22.0878 7.8258 21.9205 7.93766 21.8012 8.09327C21.6819 8.24888 21.6174 8.43953 21.6176 8.63559V32.3644C21.6176 32.6004 21.7114 32.8267 21.8782 32.9936C22.0451 33.1605 22.2714 33.2542 22.5074 33.2542H36.1087C36.2649 33.2537 36.4182 33.2124 36.5535 33.1344C36.6888 33.0563 36.8013 32.9443 36.8799 32.8093C36.9585 32.6742 37 32.5207 37 32.3644C37 32.2081 36.9585 32.0546 36.8799 31.9195ZM19.5 3C19.264 3 19.0377 3.09375 18.8708 3.26063C18.704 3.4275 18.6102 3.65383 18.6102 3.88983V5.37288C18.6102 5.60888 18.704 5.83521 18.8708 6.00209C19.0377 6.16896 19.264 6.26271 19.5 6.26271C19.736 6.26271 19.9623 6.16896 20.1292 6.00209C20.296 5.83521 20.3898 5.60888 20.3898 5.37288V3.88983C20.3898 3.65383 20.296 3.4275 20.1292 3.26063C19.9623 3.09375 19.736 3 19.5 3ZM19.5 12.7347C19.264 12.7347 19.0377 12.8285 18.8708 12.9954C18.704 13.1622 18.6102 13.3886 18.6102 13.6246V16.3771C18.6102 16.6131 18.704 16.8394 18.8708 17.0063C19.0377 17.1732 19.264 17.2669 19.5 17.2669C19.736 17.2669 19.9623 17.1732 20.1292 17.0063C20.296 16.8394 20.3898 16.6131 20.3898 16.3771V13.6246C20.3898 13.3886 20.296 13.1622 20.1292 12.9954C19.9623 12.8285 19.736 12.7347 19.5 12.7347ZM19.5 7.23559C19.264 7.23559 19.0377 7.32934 18.8708 7.49622C18.704 7.66309 18.6102 7.88943 18.6102 8.12542V10.872C18.6102 11.108 18.704 11.3344 18.8708 11.5012C19.0377 11.6681 19.264 11.7619 19.5 11.7619C19.736 11.7619 19.9623 11.6681 20.1292 11.5012C20.296 11.3344 20.3898 11.108 20.3898 10.872V8.12542C20.3898 7.88943 20.296 7.66309 20.1292 7.49622C19.9623 7.32934 19.736 7.23559 19.5 7.23559ZM19.5 23.739C19.3811 23.7389 19.2635 23.7627 19.1539 23.8089C19.0444 23.8551 18.9452 23.9228 18.8623 24.0079C18.7794 24.0931 18.7143 24.194 18.671 24.3047C18.6277 24.4154 18.6071 24.5337 18.6102 24.6525V27.3992C18.6102 27.6352 18.704 27.8615 18.8708 28.0284C19.0377 28.1952 19.264 28.289 19.5 28.289C19.736 28.289 19.9623 28.1952 20.1292 28.0284C20.296 27.8615 20.3898 27.6352 20.3898 27.3992V24.6525C20.3929 24.5337 20.3723 24.4154 20.329 24.3047C20.2857 24.194 20.2206 24.0931 20.1377 24.0079C20.0548 23.9228 19.9556 23.8551 19.8461 23.8089C19.7365 23.7627 19.6189 23.7389 19.5 23.739ZM19.5 18.2339C19.264 18.2339 19.0377 18.3276 18.8708 18.4945C18.704 18.6614 18.6102 18.8877 18.6102 19.1237V21.8763C18.6102 22.1123 18.704 22.3386 18.8708 22.5055C19.0377 22.6724 19.264 22.7661 19.5 22.7661C19.736 22.7661 19.9623 22.6724 20.1292 22.5055C20.296 22.3386 20.3898 22.1123 20.3898 21.8763V19.1237C20.3898 18.8877 20.296 18.6614 20.1292 18.4945C19.9623 18.3276 19.736 18.2339 19.5 18.2339ZM19.5 29.2381C19.264 29.2381 19.0377 29.3319 18.8708 29.4988C18.704 29.6656 18.6102 29.892 18.6102 30.128V32.8746C18.6102 33.1106 18.704 33.3369 18.8708 33.5038C19.0377 33.6707 19.264 33.7644 19.5 33.7644C19.736 33.7644 19.9623 33.6707 20.1292 33.5038C20.296 33.3369 20.3898 33.1106 20.3898 32.8746V30.128C20.3898 29.892 20.296 29.6656 20.1292 29.4988C19.9623 29.3319 19.736 29.2381 19.5 29.2381ZM19.5 34.7373C19.264 34.7373 19.0377 34.831 18.8708 34.9979C18.704 35.1648 18.6102 35.3911 18.6102 35.6271V37.1102C18.6102 37.3462 18.704 37.5725 18.8708 37.7394C19.0377 37.9062 19.264 38 19.5 38C19.736 38 19.9623 37.9062 20.1292 37.7394C20.296 37.5725 20.3898 37.3462 20.3898 37.1102V35.6271C20.3898 35.3911 20.296 35.1648 20.1292 34.9979C19.9623 34.831 19.736 34.7373 19.5 34.7373Z" fill="#394655"/>
</svg>
