<svg width="30" height="30" viewBox="0 0 30 30" fill="none" xmlns="http://www.w3.org/2000/svg">
<g clip-path="url(#clip0_86_383)">
<path d="M0.351562 6.21094V23.7891C0.351562 27.0234 2.97656 29.6484 6.21094 29.6484H23.7891C27.0234 29.6484 29.6484 27.0234 29.6484 23.7891V6.21094C29.6484 2.97656 27.0234 0.351562 23.7891 0.351562H6.21094C2.97656 0.351562 0.351562 2.97656 0.351562 6.21094ZM20.502 19.4297C19.4531 20.4844 18.1172 21.082 16.752 21.2285C16.3945 21.2695 16.084 20.9824 16.084 20.625V20.2207C16.084 19.916 16.3125 19.6523 16.6172 19.6172C17.6191 19.5059 18.5918 19.0547 19.3652 18.2871C21.1758 16.4766 21.1758 13.541 19.3652 11.7305C17.5547 9.91992 14.6191 9.91992 12.8086 11.7305C11.9355 12.6035 11.4902 13.7285 11.4551 14.8652H13.2598C13.6172 14.8652 13.7988 15.2988 13.5469 15.5508L10.957 18.1406C10.7988 18.2988 10.5469 18.2988 10.3887 18.1406L7.79297 15.5566C7.54102 15.3047 7.7168 14.8711 8.08008 14.8711H9.83789C9.87305 13.3184 10.4824 11.7773 11.666 10.5938C14.1035 8.15625 18.0527 8.15625 20.4902 10.5879C22.9277 13.0195 22.9336 16.9922 20.502 19.4297Z" fill="#877751"/>
</g>
<defs>
<clipPath id="clip0_86_383">
<rect width="30" height="30" fill="white"/>
</clipPath>
</defs>
</svg>
